<svg width="1032" height="1032" viewBox="0 0 1032 1032" fill="none" xmlns="http://www.w3.org/2000/svg">
<g filter="url(#filter0_d_26_3)">
<g clip-path="url(#clip0_26_3)">
<path d="M631.945 824.292H399.898C373.752 824.292 350.874 809.498 341.413 786.793L244.053 550.961C220.143 493.336 224.788 429.863 256.782 377.055C268.651 357.273 282.412 338.18 297.722 320.634C300.646 317.194 302.022 313.926 304.086 308.765C308.73 297.584 315.095 282.103 340.209 261.805C369.107 238.584 388.717 233.767 407.639 229.295C415.207 227.403 422.604 225.683 430.516 222.758C436.365 220.522 441.697 217.598 447.546 214.502C463.027 206.073 480.744 196.44 513.771 196.44C548.518 196.44 565.375 205.729 580.341 213.986C586.361 217.254 592.038 220.35 598.746 222.758C606.143 225.338 614.571 227.747 623.344 230.155C643.47 235.659 666.348 242.024 684.065 254.753C699.202 265.59 708.663 280.211 717.78 294.488C722.94 302.401 727.757 309.969 733.261 316.162C753.215 338.868 770.072 363.466 782.973 389.44C808.087 439.324 809.98 497.981 788.478 550.101L763.708 610.306C759.923 619.423 749.431 623.895 740.314 620.111C731.197 616.327 726.725 605.834 730.509 596.717L755.279 536.512C772.824 494.025 771.276 446.205 750.807 405.609C739.11 382.387 724.144 360.37 706.255 340.072C698.858 331.815 693.182 322.698 687.505 314.098C679.937 302.229 672.54 291.048 662.907 284.167C650.35 275.223 631.601 270.062 613.539 264.902C604.423 262.322 594.962 259.741 586.361 256.645C576.9 253.205 569.504 249.076 562.795 245.464C549.378 238.068 538.885 232.391 513.427 232.391C489.517 232.391 477.82 238.756 464.403 245.98C457.867 249.42 451.33 253.205 443.073 256.301C432.925 260.257 423.808 262.322 415.723 264.214C398.522 268.342 384.933 271.61 362.399 289.844C344.509 304.293 340.897 313.066 336.941 322.526C334.36 329.063 331.264 336.46 324.556 344.2C310.623 360.37 298.066 377.743 287.229 395.976C261.255 438.98 257.47 490.584 276.908 537.716L374.268 773.547C378.052 782.664 388.201 788.857 399.554 788.857H631.601C642.954 788.857 653.103 782.664 656.887 773.547L676.669 725.556C680.453 716.439 690.946 711.966 700.062 715.751C709.179 719.535 713.652 730.028 709.867 739.145L690.086 787.137C681.141 809.498 658.091 824.292 631.945 824.292Z" fill="#2D1D06"/>
<path d="M711.931 705.602C709.695 705.602 707.287 705.086 705.051 704.226C695.934 700.441 691.462 689.949 695.246 680.832L706.427 653.654C710.211 644.537 720.704 640.065 729.821 643.849C738.938 647.633 743.41 658.126 739.626 667.243L728.445 694.421C725.693 701.474 718.984 705.602 711.931 705.602ZM719.672 345.748C714.684 345.748 709.695 343.684 706.255 339.728C698.858 331.299 694.558 323.387 690.774 316.334C684.925 305.497 679.937 296.208 662.907 283.651C650.522 274.535 631.945 269.546 613.711 264.558C604.595 261.978 595.134 259.569 586.361 256.301C577.072 253.033 572.256 242.712 575.524 233.423C578.793 224.134 589.113 219.318 598.402 222.586C605.799 225.166 614.227 227.575 623 229.983C643.298 235.487 666.176 241.68 683.893 254.753C707.459 272.126 715.716 287.264 722.252 299.305C725.521 305.497 728.445 310.657 733.089 315.99C739.626 323.387 738.938 334.739 731.541 341.276C728.101 344.2 723.972 345.748 719.672 345.748Z" fill="#2D1D06"/>
<path d="M719.672 345.748C714.684 345.748 709.695 343.684 706.255 339.728C698.858 331.299 694.558 323.387 690.774 316.334C684.925 305.497 679.937 296.208 662.735 283.651C644.502 270.234 629.193 266.966 613.023 263.354C604.423 261.461 595.65 259.569 586.361 256.301C577.072 253.033 572.256 242.712 575.524 233.423C578.793 224.134 589.113 219.318 598.402 222.586C605.455 225.166 612.679 226.715 620.42 228.435C638.825 232.391 659.467 236.863 683.893 254.925C707.459 272.298 715.544 287.436 722.08 299.477C725.349 305.669 728.273 310.829 732.917 316.162C739.454 323.559 738.766 334.911 731.369 341.448C728.101 344.2 723.972 345.748 719.672 345.748ZM381.492 656.406C374.956 656.406 368.591 652.794 365.495 646.601C282.928 482.844 295.485 336.46 296.001 330.439C296.861 320.634 305.462 313.238 315.611 314.27C325.416 315.13 332.64 323.903 331.78 333.707C331.608 335.944 320.083 476.651 397.662 630.432C402.134 639.204 398.522 650.041 389.749 654.514C386.825 655.89 384.073 656.406 381.492 656.406Z" fill="#2D1D06"/>
<path d="M483.669 656.234C476.1 656.234 469.22 651.417 466.639 644.021C395.598 431.239 417.959 253.893 418.991 246.324C420.368 236.519 429.312 229.639 439.117 230.843C448.922 232.219 455.802 241.164 454.598 250.969C454.426 252.689 432.409 427.971 500.698 632.496C503.794 641.957 498.806 652.105 489.345 655.202C487.453 655.89 485.561 656.234 483.669 656.234Z" fill="#2D1D06"/>
<path d="M646.222 656.406C643.47 656.406 640.718 655.718 638.137 654.514C629.365 650.041 625.752 639.204 630.225 630.432C708.319 475.619 696.966 330.783 696.794 329.235C695.934 319.43 703.331 310.657 713.136 309.797C722.94 308.937 731.713 316.334 732.573 326.139C733.089 332.503 744.786 482.672 662.219 646.429C659.123 652.794 652.759 656.406 646.222 656.406Z" fill="#2D1D06"/>
<path d="M544.046 658.234C542.154 658.234 540.261 657.89 538.369 657.374C528.908 654.278 523.92 644.129 527.016 634.668C595.306 430.143 573.288 254.861 573.116 253.141C571.74 243.336 578.793 234.391 588.597 233.015C598.402 231.811 607.347 238.691 608.723 248.496C609.755 255.893 632.117 433.411 561.075 646.193C558.667 653.417 551.614 658.234 544.046 658.234Z" fill="#2D1D06"/>
</g>
</g>
<defs>
<filter id="filter0_d_26_3" x="0" y="0" width="1032" height="1032" filterUnits="userSpaceOnUse" color-interpolation-filters="sRGB">
<feFlood flood-opacity="0" result="BackgroundImageFix"/>
<feColorMatrix in="SourceAlpha" type="matrix" values="0 0 0 0 0 0 0 0 0 0 0 0 0 0 0 0 0 0 127 0" result="hardAlpha"/>
<feOffset dy="4"/>
<feGaussianBlur stdDeviation="2"/>
<feComposite in2="hardAlpha" operator="out"/>
<feColorMatrix type="matrix" values="0 0 0 0 0 0 0 0 0 0 0 0 0 0 0 0 0 0 0.25 0"/>
<feBlend mode="normal" in2="BackgroundImageFix" result="effect1_dropShadow_26_3"/>
<feBlend mode="normal" in="SourceGraphic" in2="effect1_dropShadow_26_3" result="shape"/>
</filter>
<clipPath id="clip0_26_3">
<rect width="1024" height="1024" fill="white" transform="translate(4)"/>
</clipPath>
</defs>
</svg>
